# xmcd
#
# Track frame offsets: 
#        150
#        17164
#        38207
#        61064
#        76662
#        100005
#        111037
#        131562
#        145595
#        179201
#        210377
#        232378
#
# Disc length: 3590 seconds
#
# Revision: 0
# Processed by: cddbd v1.5.2PL0 Copyright (c) Steve Scherf et al.
# Submitted via: ExactAudioCopy v0.95a5
#
DISCID=9e0e040c
DTITLE=丁承运 - 琴上月令
DYEAR=2014
DGENRE=Folk
TTITLE0=春晓吟
TTITLE1=杏花天
TTITLE2=流觞
TTITLE3=风雷引
TTITLE4=南风畅
TTITLE5=极乐吟
TTITLE6=梧叶舞秋风
TTITLE7=洞庭秋思
TTITLE8=雁落平沙
TTITLE9=白雪
TTITLE10=神人畅
TTITLE11=梅花三弄
EXTD=
EXTT0=
EXTT1=
EXTT2=
EXTT3=
EXTT4=
EXTT5=
EXTT6=
EXTT7=
EXTT8=
EXTT9=
EXTT10=
EXTT11=
PLAYORDER=
